<?xml version="1.0" encoding="UTF-8"?>
<svg xmlns="http://www.w3.org/2000/svg" xmlns:xlink="http://www.w3.org/1999/xlink" width="40px" height="40px" viewBox="0 0 40 40" version="1.1">
<g id="surface1">
<path style=" stroke:none;fill-rule:nonzero;fill:rgb(0%,0%,0%);fill-opacity:1;" d="M 32.359375 33.53125 L 33.539062 32.355469 L 34.714844 33.535156 L 33.539062 34.710938 Z M 32.359375 33.53125 "/>
<path style=" stroke:none;fill-rule:nonzero;fill:rgb(0%,0%,0%);fill-opacity:1;" d="M 29.410156 30.589844 L 30.589844 29.410156 L 31.765625 30.589844 L 30.589844 31.765625 Z M 29.410156 30.589844 "/>
<path style=" stroke:none;fill-rule:nonzero;fill:rgb(0%,0%,0%);fill-opacity:1;" d="M 30.519531 21.527344 L 26.613281 25.433594 L 23.933594 22.753906 C 26.289062 20.195312 27.769531 18.082031 28.40625 16.355469 C 28.675781 15.617188 28.800781 14.933594 28.789062 14.300781 C 29.171875 14.402344 29.566406 14.46875 29.96875 14.46875 C 30.195312 14.46875 30.421875 14.449219 30.648438 14.417969 C 35.015625 13.757812 35.707031 8.765625 35.734375 8.554688 C 36.167969 5.179688 38.476562 3.734375 39.445312 3.265625 C 39.820312 3.089844 40.035156 2.703125 39.996094 2.289062 C 39.957031 1.871094 39.660156 1.523438 39.257812 1.417969 L 39.253906 1.417969 C 31.597656 -0.570312 27.695312 3.449219 26.050781 6.023438 C 25.175781 7.390625 24.859375 8.914062 25.144531 10.355469 C 24.417969 10.277344 23.625 10.386719 22.757812 10.707031 C 21.027344 11.339844 18.917969 12.820312 16.359375 15.179688 L 7.136719 5.957031 L 7.136719 3.175781 C 7.136719 2.882812 6.980469 2.613281 6.730469 2.460938 L 2.824219 0.117188 C 2.496094 -0.078125 2.078125 -0.0234375 1.808594 0.242188 L 0.246094 1.804688 C -0.0273438 2.078125 -0.078125 2.496094 0.117188 2.824219 L 2.460938 6.730469 C 2.613281 6.980469 2.882812 7.132812 3.175781 7.132812 L 5.957031 7.132812 L 15.148438 16.328125 C 14.9375 16.535156 14.726562 16.730469 14.507812 16.949219 C 9.933594 21.527344 -2.402344 35.746094 0.480469 38.628906 C 0.777344 38.925781 1.195312 39.0625 1.707031 39.0625 C 6.183594 39.0625 18.054688 28.707031 22.164062 24.601562 C 22.382812 24.382812 22.578125 24.175781 22.785156 23.964844 L 25.433594 26.613281 L 21.527344 30.519531 L 29.148438 38.136719 C 30.347656 39.339844 31.945312 40 33.644531 40 C 35.339844 40 36.9375 39.339844 38.136719 38.136719 C 40.617188 35.660156 40.617188 31.625 38.136719 29.148438 Z M 5.46875 5.46875 L 3.648438 5.46875 L 1.882812 2.523438 L 2.523438 1.882812 L 5.46875 3.648438 Z M 27.453125 6.921875 C 28.816406 4.789062 31.226562 2.550781 35.335938 2.550781 C 35.929688 2.550781 36.558594 2.597656 37.226562 2.699219 C 35.941406 3.699219 34.453125 5.457031 34.082031 8.339844 C 34.0625 8.5 33.515625 12.296875 30.398438 12.769531 C 29.546875 12.898438 28.691406 12.628906 28.011719 12.082031 C 27.878906 11.902344 27.726562 11.726562 27.558594 11.554688 C 27.492188 11.488281 27.425781 11.441406 27.359375 11.378906 C 27.1875 11.136719 27.03125 10.871094 26.917969 10.574219 C 26.488281 9.453125 26.683594 8.121094 27.453125 6.921875 Z M 23.332031 12.269531 C 23.871094 12.074219 24.320312 11.992188 24.703125 11.992188 C 25.300781 11.992188 25.726562 12.191406 26.066406 12.453125 C 26.28125 12.742188 26.523438 13 26.789062 13.230469 C 27.132812 13.777344 27.296875 14.542969 26.839844 15.78125 C 26.59375 16.453125 26.175781 17.214844 25.601562 18.0625 L 21.046875 13.507812 C 21.894531 12.933594 22.660156 12.515625 23.332031 12.269531 Z M 20.984375 23.425781 C 13.230469 31.179688 3.179688 38.101562 1.683594 37.484375 C 1.003906 35.925781 7.933594 25.882812 15.6875 18.128906 C 17.160156 16.65625 18.492188 15.457031 19.691406 14.511719 L 24.601562 19.417969 C 23.65625 20.617188 22.457031 21.953125 20.984375 23.425781 Z M 36.960938 36.960938 C 36.074219 37.84375 34.894531 38.332031 33.644531 38.332031 C 32.390625 38.332031 31.210938 37.84375 30.328125 36.960938 L 23.886719 30.519531 L 30.519531 23.886719 L 36.960938 30.324219 C 38.789062 32.15625 38.789062 35.128906 36.960938 36.960938 Z M 36.960938 36.960938 "/>
</g>
</svg>
