<?xml version="1.0" encoding="UTF-8"?>
<svg xmlns="http://www.w3.org/2000/svg" xmlns:xlink="http://www.w3.org/1999/xlink" width="64px" height="64px" viewBox="0 0 64 64" version="1.1">
<g id="surface1">
<path style=" stroke:none;fill-rule:nonzero;fill:rgb(0%,0%,0%);fill-opacity:1;" d="M 60.324219 18.484375 L 60.324219 45.496094 C 60.324219 47.25 59.378906 48.882812 57.863281 49.765625 L 34.457031 63.28125 C 33.710938 63.714844 32.859375 63.9375 31.992188 63.9375 C 31.136719 63.9375 30.289062 63.714844 29.539062 63.28125 L 21.722656 58.65625 C 20.558594 58.003906 21.125 57.773438 21.511719 57.640625 C 23.070312 57.101562 23.382812 56.976562 25.046875 56.03125 C 25.21875 55.933594 25.445312 55.972656 25.625 56.074219 L 31.628906 59.640625 C 31.847656 59.761719 32.15625 59.761719 32.355469 59.640625 L 55.761719 46.128906 C 55.980469 46.003906 56.121094 45.757812 56.121094 45.496094 L 56.121094 18.484375 C 56.121094 18.21875 55.980469 17.972656 55.757812 17.839844 L 32.359375 4.339844 C 32.144531 4.214844 31.855469 4.214844 31.636719 4.339844 L 8.246094 17.84375 C 8.019531 17.972656 7.875 18.226562 7.875 18.484375 L 7.875 45.496094 C 7.875 45.757812 8.019531 46 8.242188 46.121094 L 14.65625 49.828125 C 18.136719 51.566406 20.265625 49.519531 20.265625 47.457031 L 20.265625 20.789062 C 20.265625 20.410156 20.570312 20.113281 20.945312 20.113281 L 23.914062 20.113281 C 24.285156 20.113281 24.59375 20.410156 24.59375 20.789062 L 24.59375 47.457031 C 24.59375 52.101562 22.0625 54.765625 17.660156 54.765625 C 16.308594 54.765625 15.242188 54.765625 12.269531 53.300781 L 6.132812 49.765625 C 4.613281 48.890625 3.675781 47.25 3.675781 45.496094 L 3.675781 18.484375 C 3.675781 16.726562 4.613281 15.089844 6.132812 14.214844 L 29.539062 0.691406 C 31.019531 -0.148438 32.988281 -0.148438 34.457031 0.691406 L 57.863281 14.214844 C 59.378906 15.09375 60.324219 16.726562 60.324219 18.484375 Z M 40.144531 42.921875 C 33.160156 42.921875 31.625 41.164062 31.109375 37.691406 C 31.050781 37.320312 30.730469 37.042969 30.351562 37.042969 L 26.9375 37.042969 C 26.515625 37.042969 26.175781 37.382812 26.175781 37.808594 C 26.175781 42.253906 28.597656 47.554688 40.144531 47.554688 C 48.507812 47.554688 53.304688 44.261719 53.304688 38.511719 C 53.304688 32.808594 49.453125 31.289062 41.339844 30.21875 C 33.144531 29.132812 32.3125 28.574219 32.3125 26.652344 C 32.3125 25.070312 33.015625 22.957031 39.089844 22.957031 C 44.507812 22.957031 46.507812 24.125 47.332031 27.777344 C 47.402344 28.121094 47.714844 28.375 48.070312 28.375 L 51.496094 28.375 C 51.710938 28.375 51.910156 28.28125 52.054688 28.132812 C 52.199219 27.972656 52.277344 27.761719 52.257812 27.542969 C 51.726562 21.246094 47.542969 18.3125 39.085938 18.3125 C 31.5625 18.3125 27.074219 21.492188 27.074219 26.8125 C 27.074219 32.589844 31.539062 34.1875 38.761719 34.902344 C 47.402344 35.75 48.074219 37.011719 48.074219 38.710938 C 48.074219 41.664062 45.707031 42.921875 40.144531 42.921875 Z M 40.144531 42.921875 "/>
</g>
</svg>
