<?xml version="1.0" encoding="UTF-8"?>
<svg xmlns="http://www.w3.org/2000/svg" xmlns:xlink="http://www.w3.org/1999/xlink" width="40px" height="40px" viewBox="0 0 40 40" version="1.1">
<g id="surface1">
<path style="fill:none;stroke-width:1.5;stroke-linecap:butt;stroke-linejoin:miter;stroke:rgb(0%,0%,0%);stroke-opacity:1;stroke-miterlimit:4;" d="M 12 19.5 C 12 20.880469 10.879687 22.000781 9.499219 22.000781 C 8.11875 22.000781 7.000781 20.880469 7.000781 19.5 C 7.000781 18.119531 8.11875 16.999219 9.499219 16.999219 C 10.879687 16.999219 12 18.119531 12 19.5 Z M 12 19.5 " transform="matrix(1.666667,0,0,1.666667,0,0)"/>
<path style="fill:none;stroke-width:1.5;stroke-linecap:butt;stroke-linejoin:miter;stroke:rgb(0%,0%,0%);stroke-opacity:1;stroke-miterlimit:4;" d="M 22.000781 17.500781 C 22.000781 18.88125 20.880469 19.999219 19.5 19.999219 C 18.119531 19.999219 16.999219 18.88125 16.999219 17.500781 C 16.999219 16.120312 18.119531 15 19.5 15 C 20.880469 15 22.000781 16.120312 22.000781 17.500781 Z M 22.000781 17.500781 " transform="matrix(1.666667,0,0,1.666667,0,0)"/>
<path style="fill:none;stroke-width:1.5;stroke-linecap:round;stroke-linejoin:miter;stroke:rgb(0%,0%,0%);stroke-opacity:1;stroke-miterlimit:4;" d="M 22.000781 7.999219 L 12 12 " transform="matrix(1.666667,0,0,1.666667,0,0)"/>
<path style=" stroke:none;fill-rule:nonzero;fill:rgb(0%,0%,0%);fill-opacity:1;" d="M 24.09375 8.597656 L 24.574219 9.75 Z M 27.425781 7.203125 L 26.945312 6.046875 Z M 35.179688 5.566406 L 34.488281 6.609375 Z M 35.417969 20 C 35.417969 20.691406 35.976562 21.25 36.667969 21.25 C 37.355469 21.25 37.917969 20.691406 37.917969 20 Z M 21.25 31.667969 L 21.25 14.746094 L 18.75 14.746094 L 18.75 31.667969 Z M 24.574219 9.75 L 27.910156 8.355469 L 26.945312 6.046875 L 23.609375 7.445312 Z M 37.917969 13.351562 C 37.917969 11.128906 37.921875 9.316406 37.71875 7.949219 C 37.511719 6.554688 37.050781 5.3125 35.871094 4.527344 L 34.488281 6.609375 C 34.796875 6.8125 35.078125 7.195312 35.246094 8.316406 C 35.414062 9.457031 35.417969 11.046875 35.417969 13.351562 Z M 27.910156 8.355469 C 30.035156 7.464844 31.5 6.855469 32.621094 6.570312 C 33.71875 6.289062 34.179688 6.402344 34.488281 6.609375 L 35.871094 4.527344 C 34.695312 3.742188 33.367188 3.796875 32.003906 4.148438 C 30.664062 4.488281 28.996094 5.191406 26.945312 6.046875 Z M 21.25 14.746094 C 21.25 13.644531 21.25 12.917969 21.3125 12.355469 C 21.371094 11.828125 21.46875 11.566406 21.597656 11.375 L 19.519531 9.988281 C 19.085938 10.636719 18.910156 11.332031 18.828125 12.085938 C 18.75 12.8125 18.75 13.699219 18.75 14.746094 Z M 23.609375 7.445312 C 22.644531 7.847656 21.824219 8.1875 21.1875 8.542969 C 20.519531 8.910156 19.949219 9.34375 19.519531 9.988281 L 21.597656 11.375 C 21.726562 11.179688 21.929688 10.988281 22.394531 10.730469 C 22.886719 10.457031 23.558594 10.175781 24.574219 9.75 Z M 37.917969 20 L 37.917969 13.351562 L 35.417969 13.351562 L 35.417969 20 Z M 37.917969 20 "/>
<path style="fill:none;stroke-width:1.5;stroke-linecap:round;stroke-linejoin:miter;stroke:rgb(0%,0%,0%);stroke-opacity:1;stroke-miterlimit:4;" d="M 7.000781 10.999219 L 7.000781 1.999219 " transform="matrix(1.666667,0,0,1.666667,0,0)"/>
<path style="fill:none;stroke-width:1.5;stroke-linecap:butt;stroke-linejoin:miter;stroke:rgb(0%,0%,0%);stroke-opacity:1;stroke-miterlimit:4;" d="M 7.000781 10.5 C 7.000781 11.880469 5.880469 13.000781 4.5 13.000781 C 3.119531 13.000781 1.999219 11.880469 1.999219 10.5 C 1.999219 9.119531 3.119531 7.999219 4.5 7.999219 C 5.880469 7.999219 7.000781 9.119531 7.000781 10.5 Z M 7.000781 10.5 " transform="matrix(1.666667,0,0,1.666667,0,0)"/>
<path style="fill:none;stroke-width:1.5;stroke-linecap:round;stroke-linejoin:miter;stroke:rgb(0%,0%,0%);stroke-opacity:1;stroke-miterlimit:4;" d="M 10.000781 4.999219 C 8.75625 4.999219 7.000781 4.071094 7.000781 1.999219 " transform="matrix(1.666667,0,0,1.666667,0,0)"/>
</g>
</svg>
