<?xml version="1.0" encoding="UTF-8"?>
<svg xmlns="http://www.w3.org/2000/svg" xmlns:xlink="http://www.w3.org/1999/xlink" width="40px" height="40px" viewBox="0 0 40 40" version="1.1">
<g id="surface1">
<path style=" stroke:none;fill-rule:nonzero;fill:rgb(0%,0%,0%);fill-opacity:1;" d="M 20 0.0390625 C 8.992188 0.0390625 0.0390625 8.992188 0.0390625 20 C 0.0390625 31.003906 8.992188 39.960938 20 39.960938 C 31.007812 39.960938 39.960938 31.003906 39.960938 20 C 39.960938 8.992188 31.007812 0.0390625 20 0.0390625 Z M 2.054688 20 C 2.054688 17.398438 2.613281 14.925781 3.609375 12.695312 L 12.167969 36.152344 C 6.179688 33.242188 2.054688 27.101562 2.054688 20 Z M 20 37.945312 C 18.238281 37.945312 16.539062 37.6875 14.929688 37.214844 L 20.316406 21.570312 L 25.832031 36.683594 C 25.867188 36.769531 25.910156 36.851562 25.960938 36.929688 C 24.09375 37.585938 22.089844 37.945312 20 37.945312 Z M 22.472656 11.585938 C 23.554688 11.527344 24.527344 11.414062 24.527344 11.414062 C 25.496094 11.300781 25.378906 9.878906 24.414062 9.9375 C 24.414062 9.9375 21.503906 10.164062 19.628906 10.164062 C 17.867188 10.164062 14.902344 9.9375 14.902344 9.9375 C 13.933594 9.878906 13.820312 11.359375 14.789062 11.414062 C 14.789062 11.414062 15.703125 11.527344 16.671875 11.585938 L 19.46875 19.246094 L 15.539062 31.023438 L 9.003906 11.585938 C 10.085938 11.527344 11.058594 11.414062 11.058594 11.414062 C 12.023438 11.300781 11.910156 9.878906 10.941406 9.9375 C 10.941406 9.9375 8.035156 10.164062 6.160156 10.164062 C 5.824219 10.164062 5.425781 10.15625 5.003906 10.140625 C 8.214844 5.269531 13.730469 2.050781 20 2.050781 C 24.671875 2.050781 28.925781 3.839844 32.117188 6.765625 C 32.042969 6.761719 31.964844 6.75 31.886719 6.75 C 30.125 6.75 28.871094 8.285156 28.871094 9.9375 C 28.871094 11.414062 29.726562 12.664062 30.636719 14.144531 C 31.316406 15.339844 32.113281 16.875 32.113281 19.09375 C 32.113281 20.628906 31.523438 22.414062 30.75 24.894531 L 28.957031 30.875 Z M 29.023438 35.511719 L 34.503906 19.664062 C 35.527344 17.101562 35.867188 15.054688 35.867188 13.234375 C 35.867188 12.574219 35.824219 11.960938 35.746094 11.390625 C 37.148438 13.945312 37.945312 16.878906 37.945312 20 C 37.945312 26.621094 34.359375 32.402344 29.023438 35.511719 Z M 29.023438 35.511719 "/>
</g>
</svg>
